<?xml version="1.0" standalone="no"?>
<!DOCTYPE svg PUBLIC "-//W3C//DTD SVG 20010904//EN"
 "http://www.w3.org/TR/2001/REC-SVG-20010904/DTD/svg10.dtd">
<svg version="1.0" xmlns="http://www.w3.org/2000/svg"
 width="640.000000pt" height="640.000000pt" viewBox="0 0 640.000000 640.000000"
 preserveAspectRatio="xMidYMid meet">
<metadata>
Created by potrace 1.11, written by Peter Selinger 2001-2013
</metadata>
<g transform="translate(0.000000,640.000000) scale(0.100000,-0.100000)"
fill="#000000" stroke="none">
<path d="M2748 6112 c-16 -9 -28 -20 -28 -24 0 -5 -5 -8 -11 -8 -6 0 -28 -14
-48 -30 -42 -36 -45 -38 -91 -70 -19 -13 -49 -38 -66 -56 -17 -18 -55 -44 -85
-57 -30 -13 -79 -36 -109 -50 -173 -80 -248 -90 -370 -49 -25 8 -108 18 -185
23 -77 4 -181 11 -230 15 -82 6 -98 4 -170 -20 -43 -15 -87 -34 -97 -43 -17
-15 -21 -15 -51 0 -17 10 -46 26 -63 37 -16 11 -63 24 -103 30 -60 8 -91 20
-169 65 -53 30 -102 55 -110 55 -18 0 -62 -46 -62 -65 0 -19 -23 -14 -88 20
-80 42 -139 15 -128 -58 4 -24 1 -48 -9 -67 -29 -57 -14 -140 65 -355 23 -61
59 -118 92 -145 16 -14 17 -23 9 -95 -12 -109 -25 -152 -53 -182 -19 -21 -24
-37 -26 -107 -4 -86 -3 -89 43 -121 34 -23 26 -95 -23 -198 -23 -49 -42 -97
-42 -107 0 -36 22 -69 51 -75 29 -7 29 -7 29 -79 0 -82 11 -104 60 -120 24 -8
36 -20 43 -41 5 -16 16 -37 23 -46 27 -31 11 -144 -36 -254 -5 -11 -20 -51
-35 -90 -14 -38 -32 -85 -40 -103 -8 -18 -15 -41 -15 -52 0 -10 -4 -22 -10
-25 -14 -9 -13 -229 2 -277 9 -31 9 -44 0 -59 -7 -10 -12 -30 -12 -45 0 -31
-28 -101 -82 -209 -51 -99 -64 -115 -98 -115 -34 0 -52 -20 -80 -90 -12 -30
-28 -68 -35 -85 -24 -55 -28 -86 -14 -112 12 -23 18 -25 63 -20 43 4 54 10 76
38 14 18 48 58 75 89 56 61 106 143 125 205 7 22 16 44 21 50 5 5 9 15 9 23 0
8 19 51 42 96 38 74 42 88 42 158 1 49 -4 82 -11 90 -9 8 -13 45 -13 110 0 95
2 103 56 246 31 81 69 186 85 235 16 48 33 95 38 105 42 77 54 187 25 216 -8
9 -27 19 -42 22 -51 11 -52 12 -52 64 0 42 -5 55 -26 75 -15 14 -31 25 -35 25
-12 0 0 52 28 130 27 77 28 98 7 129 -15 21 -15 26 1 60 12 27 15 51 10 82 -7
47 12 120 33 127 9 3 12 -25 12 -100 1 -167 14 -242 53 -297 47 -65 102 -103
188 -131 92 -29 164 -29 251 0 l65 23 40 -27 c57 -38 157 -55 221 -37 92 26
91 26 103 -8 22 -62 61 -65 147 -11 34 22 69 40 76 40 7 0 21 -19 32 -42 10
-24 29 -57 41 -74 13 -17 23 -36 23 -43 0 -30 -93 -96 -235 -166 -82 -40 -201
-107 -263 -148 -113 -74 -163 -100 -214 -111 -15 -4 -32 -12 -38 -19 -87 -106
-96 -129 -62 -160 25 -23 57 -21 93 5 30 23 31 23 45 4 8 -11 14 -40 14 -65 0
-24 5 -59 12 -78 10 -29 9 -35 -8 -55 -29 -32 -54 -75 -54 -90 0 -8 -7 -24
-17 -37 l-16 -24 -14 27 c-28 54 -98 43 -138 -23 -11 -18 -41 -56 -67 -84 -47
-51 -48 -53 -48 -119 0 -64 2 -68 28 -82 34 -17 63 -7 93 33 13 17 25 31 28
31 3 0 14 -14 23 -30 18 -32 50 -39 79 -17 8 7 32 38 52 70 20 31 42 57 49 57
7 -1 22 -15 33 -32 30 -47 50 -56 83 -38 15 9 34 30 44 48 22 46 24 46 50 28
33 -23 72 -20 108 10 28 24 32 25 48 11 9 -8 33 -22 52 -31 19 -8 47 -26 63
-38 24 -19 31 -21 58 -11 27 11 31 10 39 -12 5 -13 13 -26 18 -29 10 -6 8
-213 -2 -223 -3 -4 -12 -1 -18 5 -18 18 -63 15 -81 -5 -8 -10 -19 -30 -22 -46
-10 -38 -21 -42 -52 -17 -20 15 -34 19 -57 14 -44 -9 -96 -51 -112 -91 -12
-28 -18 -33 -37 -27 -29 8 -36 15 -40 41 -4 31 -36 63 -61 63 -28 -1 -47 -17
-75 -62 -19 -33 -28 -38 -59 -38 -30 0 -44 -8 -85 -51 -45 -47 -51 -50 -74
-40 -50 23 -78 14 -124 -40 -24 -28 -75 -82 -113 -119 -68 -67 -70 -70 -74
-127 -5 -68 11 -93 58 -93 29 0 33 4 90 84 14 20 28 36 32 36 3 0 15 -15 26
-34 25 -42 71 -60 101 -40 11 8 34 41 52 74 31 58 33 60 71 60 32 0 45 7 77
40 63 66 100 51 98 -39 -1 -65 18 -85 74 -78 48 6 93 48 109 100 6 23 19 62
28 87 l16 45 11 -45 c17 -70 33 -100 57 -109 36 -13 76 6 86 42 5 18 15 51 22
74 19 63 33 57 54 -25 7 -28 22 -53 38 -65 24 -18 27 -18 56 -3 27 14 31 14
36 0 11 -29 6 -47 -27 -98 -55 -83 -70 -154 -51 -238 14 -59 14 -60 -13 -98
-29 -41 -61 -64 -44 -32 6 9 14 37 20 62 12 54 -5 90 -44 90 -25 0 -135 -54
-146 -72 -3 -5 -23 2 -44 16 -21 14 -46 26 -57 26 -27 0 -79 -29 -101 -56 -21
-27 -55 -32 -63 -9 -9 22 -57 19 -99 -6 -23 -14 -44 -19 -60 -15 -29 7 -56 -5
-103 -46 -30 -26 -38 -28 -81 -22 -42 5 -51 3 -69 -16 -12 -13 -27 -48 -33
-79 -15 -66 -33 -98 -61 -107 -34 -10 -41 10 -19 52 25 46 26 62 5 92 -23 33
-69 29 -102 -8 -15 -17 -30 -30 -35 -30 -5 0 -22 14 -37 30 -39 41 -76 40
-119 -4 -38 -39 -47 -80 -25 -114 13 -19 23 -23 57 -20 l42 3 3 -60 c2 -57 1
-62 -38 -109 -45 -55 -48 -68 -20 -96 37 -37 67 -25 175 73 26 23 64 32 78 18
6 -6 20 -11 30 -11 31 0 125 68 154 111 27 41 36 45 77 29 22 -8 31 -5 60 21
33 28 35 29 41 9 9 -30 33 -50 59 -50 22 0 46 21 100 85 l25 30 25 -30 c33
-39 32 -48 -5 -80 -54 -45 -300 -276 -378 -354 l-74 -74 -41 11 c-31 8 -47 8
-66 -1 -24 -12 -25 -16 -26 -111 l-1 -99 -49 -23 c-27 -12 -71 -40 -98 -63
-62 -53 -93 -61 -117 -32 -14 17 -17 33 -12 73 5 45 4 52 -18 69 -34 26 -75
24 -101 -6 -22 -26 -43 -32 -52 -16 -3 5 -10 107 -16 228 -5 120 -13 271 -16
335 -7 125 -1 167 43 266 29 66 29 77 -1 107 -22 22 -29 23 -53 14 -61 -22
-112 -51 -117 -65 -10 -26 -7 -69 6 -82 9 -9 8 -25 -1 -68 -9 -37 -11 -86 -7
-138 12 -155 11 -212 -7 -240 -38 -57 -9 -348 43 -433 13 -21 29 -32 54 -37
56 -11 61 -33 20 -92 -19 -27 -45 -65 -58 -84 -30 -44 -103 -113 -184 -175
-61 -45 -132 -136 -132 -168 0 -14 -12 -46 -85 -219 -27 -64 -27 -68 -11 -93
9 -14 29 -31 44 -36 19 -7 283 -9 842 -4 713 6 817 9 833 23 9 8 17 23 17 32
0 9 9 25 19 34 20 18 33 15 116 -32 19 -10 54 -17 96 -17 54 -1 69 -5 88 -24
l23 -23 1517 5 1516 5 110 30 c146 40 163 47 176 76 14 30 -2 64 -34 71 -46
11 -208 22 -345 24 -122 2 -148 5 -175 22 -18 10 -50 19 -72 19 -23 0 -53 9
-70 20 -24 16 -47 20 -112 20 -81 0 -82 0 -108 34 -14 19 -38 39 -53 44 -15 6
-100 13 -189 17 -89 4 -175 10 -190 15 -15 5 -25 9 -22 9 114 16 149 36 149
86 0 34 -20 58 -59 73 l-24 9 20 19 c43 41 38 87 -14 122 -23 14 -59 18 -214
22 -103 3 -190 8 -194 11 -3 4 6 41 20 84 32 100 33 140 1 161 -25 16 -74 12
-281 -26 -75 -13 -95 -12 -95 6 0 27 58 101 108 138 63 46 108 128 116 211 26
266 26 290 -5 550 -49 413 -48 397 -33 427 26 50 11 86 -42 102 -15 5 -26 26
-43 83 -19 66 -36 95 -113 198 -50 66 -94 122 -98 125 -4 3 -27 37 -52 75 -58
89 -94 203 -79 247 17 48 13 72 -14 98 -16 15 -25 35 -25 54 0 44 -26 195 -39
231 -7 17 -22 50 -35 75 -26 48 -53 119 -80 211 -10 31 -28 72 -42 90 -15 20
-24 46 -24 68 0 51 20 149 41 205 11 28 33 119 50 204 31 153 31 154 16 245
-8 51 -23 113 -33 139 l-18 47 27 21 c15 12 27 31 27 45 0 33 -29 92 -73 150
-21 28 -64 88 -94 135 -67 102 -69 121 -19 240 52 122 58 168 35 259 -22 84
-23 114 -9 141 10 19 25 107 37 216 5 47 3 52 -27 77 -37 31 -54 33 -92 9z
m-18 -198 c0 -27 -20 -54 -40 -54 -30 0 -34 19 -9 46 26 27 49 31 49 8z
m-2057 -195 c12 -6 30 -18 39 -26 16 -14 16 -18 -3 -55 -11 -22 -24 -36 -30
-32 -15 9 -59 106 -53 116 7 11 21 10 47 -3z m155 -595 c19 -17 32 -36 32 -50
0 -30 -7 -30 -34 -1 -12 12 -31 27 -41 33 -12 6 -16 16 -12 27 9 23 18 21 55
-9z m2507 -2587 c19 -29 46 -118 39 -129 -16 -26 -51 10 -60 60 -2 15 -7 42
-10 60 -7 38 8 43 31 9z m-1495 -746 c0 -13 -29 -41 -41 -41 -10 0 -5 13 14
38 11 14 27 16 27 3z m26 -267 c-20 -77 -46 -110 -167 -204 -66 -52 -126 -96
-134 -98 -9 -2 -14 7 -14 30 0 18 -1 46 -3 62 -3 27 8 37 137 132 146 108 193
128 181 78z m-151 -426 c-5 -36 -17 -52 -108 -140 -56 -55 -126 -113 -156
-130 l-55 -31 -23 29 c-13 16 -23 36 -23 45 0 9 39 44 88 78 48 34 101 73 117
86 120 94 149 114 156 109 5 -3 6 -23 4 -46z m-323 30 c11 -31 -8 -62 -62
-103 -32 -25 -66 -45 -74 -45 -28 0 -17 26 19 43 23 11 40 29 50 53 8 21 20
43 26 51 14 16 36 17 41 1z m2148 -268 c0 -5 -17 -10 -37 -9 -31 0 -34 2 -18
9 28 12 55 12 55 0z m94 -220 c-34 -34 -552 -108 -568 -81 -7 11 67 29 169 41
112 13 278 40 283 45 3 3 32 5 66 5 41 0 57 -3 50 -10z m-2050 -106 c30 -12
16 -24 -27 -24 -24 0 -52 7 -63 15 -18 13 -16 14 28 15 25 0 53 -3 62 -6z
m965 -273 c15 -10 -16 -16 -134 -27 -139 -12 -192 -30 -278 -91 -27 -19 -50
-33 -50 -31 -15 31 -31 46 -68 65 -88 44 -56 57 176 68 83 4 179 10 215 15 93
11 123 11 139 1z"/>
</g>
</svg>
